<svg width="23" height="18" viewBox="0 0 23 18" fill="none" xmlns="http://www.w3.org/2000/svg">
<path d="M18.6923 0C19.6104 0 20.4908 0.364697 21.14 1.01386C21.7892 1.66303 22.1538 2.54348 22.1538 3.46154V14.5385C22.1538 15.4565 21.7892 16.337 21.14 16.9861C20.4908 17.6353 19.6104 18 18.6923 18H3.46154C2.54348 18 1.66303 17.6353 1.01386 16.9861C0.364697 16.337 0 15.4565 0 14.5385V3.46154C0 2.54348 0.364697 1.66303 1.01386 1.01386C1.66303 0.364697 2.54348 0 3.46154 0H18.6923ZM20.7692 5.48446L11.4286 10.9814C11.3403 11.0332 11.2416 11.0648 11.1396 11.0739C11.0376 11.083 10.9349 11.0694 10.8388 11.034L10.7252 10.9814L1.38462 5.48723V14.5385C1.38462 15.0893 1.60343 15.6176 1.99293 16.0071C2.38243 16.3966 2.9107 16.6154 3.46154 16.6154H18.6923C19.2431 16.6154 19.7714 16.3966 20.1609 16.0071C20.5504 15.6176 20.7692 15.0893 20.7692 14.5385V5.48446ZM18.6923 1.38462H3.46154C2.9107 1.38462 2.38243 1.60343 1.99293 1.99293C1.60343 2.38243 1.38462 2.9107 1.38462 3.46154V3.87969L11.0769 9.58154L20.7692 3.87692V3.46154C20.7692 2.9107 20.5504 2.38243 20.1609 1.99293C19.7714 1.60343 19.2431 1.38462 18.6923 1.38462Z" fill="#333333"/>
</svg>
