<svg width="18" height="18" viewBox="0 0 18 18" fill="none" xmlns="http://www.w3.org/2000/svg">
<path d="M17.2283 12.3335L12.8898 10.3892C12.6932 10.305 12.4787 10.2711 12.2658 10.2907C12.0528 10.3102 11.8481 10.3826 11.6701 10.5012C11.6521 10.5128 11.6349 10.5257 11.6187 10.5398L9.35117 12.4685C9.32764 12.4813 9.30145 12.4885 9.27467 12.4894C9.24789 12.4904 9.22126 12.4851 9.19688 12.474C7.73937 11.7705 6.22952 10.2698 5.52327 8.83251C5.51151 8.8085 5.5054 8.78211 5.5054 8.75537C5.5054 8.72863 5.51151 8.70224 5.52327 8.67822L7.45834 6.38222C7.47223 6.36523 7.48511 6.34745 7.49692 6.32895C7.61391 6.15033 7.68458 5.94538 7.70254 5.73261C7.72049 5.51984 7.68518 5.30594 7.59978 5.11024L5.6693 0.779058C5.55967 0.523383 5.37007 0.310161 5.12897 0.171393C4.88786 0.0326249 4.60825 -0.0242032 4.33211 0.00943748C3.13196 0.167216 2.03033 0.756591 1.23308 1.66743C0.435821 2.57826 -0.0025051 3.74823 1.07704e-05 4.9587C1.07704e-05 12.1498 5.85022 18 13.0413 18C14.2517 18.0023 15.4216 17.5639 16.3324 16.7667C17.2432 15.9695 17.8326 14.868 17.9906 13.6679C18.0241 13.393 17.9681 13.1147 17.8307 12.8743C17.6934 12.6338 17.4821 12.4442 17.2283 12.3335ZM13.0413 16.8979C6.45821 16.8979 1.10209 11.5418 1.10209 4.9587C1.09902 4.01636 1.43915 3.10513 2.05892 2.39527C2.6787 1.68541 3.53572 1.22548 4.46987 1.10142H4.49099C4.528 1.10211 4.56394 1.11396 4.59409 1.13543C4.62425 1.1569 4.64721 1.18698 4.65998 1.22173L6.5978 5.54831C6.60885 5.57237 6.61458 5.59853 6.61458 5.625C6.61458 5.65147 6.60885 5.67763 6.5978 5.70169L4.65906 8.0032C4.6446 8.01963 4.63139 8.03713 4.61957 8.05555C4.49825 8.24075 4.42681 8.45414 4.41217 8.67505C4.39753 8.89597 4.44018 9.11692 4.53599 9.31651C5.35061 10.9843 7.03129 12.6521 8.71747 13.4668C8.91823 13.562 9.14026 13.6037 9.3619 13.5876C9.58354 13.5715 9.79722 13.4982 9.98211 13.3749C9.99956 13.363 10.017 13.3501 10.0335 13.3364L12.3002 11.4077C12.3225 11.3957 12.3473 11.3886 12.3726 11.387C12.398 11.3855 12.4234 11.3894 12.4471 11.3985L16.7865 13.3428C16.822 13.3579 16.8518 13.3837 16.8717 13.4167C16.8917 13.4497 16.9007 13.4881 16.8977 13.5265C16.7743 14.461 16.3148 15.3187 15.6051 15.9392C14.8953 16.5596 13.984 16.9004 13.0413 16.8979Z" fill="#333333"/>
</svg>
